<svg width="40" height="40" viewBox="0 0 40 40" fill="none" xmlns="http://www.w3.org/2000/svg">
<rect width="40" height="40" fill="#03A31D"/>
<path d="M29.9997 25.9319C30.0199 23.4002 28.9325 21.398 26.7636 19.9841C25.0884 18.8954 23.0554 18.3276 21.0891 17.7819C16.993 16.6391 15.8048 16.0371 15.8048 14.2344C15.8048 12.2263 18.6403 11.5119 21.0678 11.5119C22.8356 11.5119 24.8695 12.0177 26.1326 12.7674L28.6367 9.19818C26.9859 8.21327 24.7266 7.54147 22.4956 7.33295V4H17.8762V7.56667C13.77 8.398 11.1833 10.8679 11.1833 14.2344C11.1833 16.592 12.2478 18.4618 14.3413 19.7806C15.9335 20.7874 17.8754 21.328 19.7512 21.8514C23.7689 22.969 25.4005 23.6501 25.3819 25.9055L25.3818 25.9221C25.3818 27.8152 22.6559 28.4881 20.3206 28.4881C18.1146 28.4881 15.7157 27.5984 14.3559 26.2754L11 29.1968C12.7221 30.8731 15.2241 32.0582 17.8761 32.5227V36H22.4956V32.5976C27.0584 31.9965 29.9952 29.4683 29.9997 25.9319Z" fill="white"/>
</svg>
