<svg width="40" height="40" viewBox="0 0 40 40" fill="none" xmlns="http://www.w3.org/2000/svg">
<rect width="40" height="40" fill="#FDE400"/>
<path d="M34.6974 4H5.80263C5.58976 4 5.38561 4.07444 5.23509 4.20694C5.08456 4.33943 5 4.51914 5 4.70652V35.7935C5 35.9809 5.08456 36.1606 5.23509 36.2931C5.38561 36.4256 5.58976 36.5 5.80263 36.5H34.6974C34.9102 36.5 35.1144 36.4256 35.2649 36.2931C35.4154 36.1606 35.5 35.9809 35.5 35.7935V4.70652C35.5 4.51914 35.4154 4.33943 35.2649 4.20694C35.1144 4.07444 34.9102 4 34.6974 4ZM33.8947 5.41304V23.7826H6.60526V5.41304H33.8947ZM6.60526 35.087V25.1957H33.8947V35.087H6.60526Z" fill="white"/>
<path d="M10.6185 19.5435H11.5656C11.7343 19.9527 12.0421 20.3062 12.4471 20.556C12.852 20.8059 13.3345 20.9399 13.8291 20.9399C14.3236 20.9399 14.8061 20.8059 15.2111 20.556C15.616 20.3062 15.9238 19.9527 16.0925 19.5435H24.4077C24.5765 19.9527 24.8842 20.3062 25.2892 20.556C25.6941 20.8059 26.1766 20.9399 26.6712 20.9399C27.1657 20.9399 27.6482 20.8059 28.0532 20.556C28.4581 20.3062 28.7659 19.9527 28.9346 19.5435H29.8817C30.5203 19.5435 31.1328 19.3202 31.5843 18.9227C32.0359 18.5252 32.2896 17.9861 32.2896 17.4239V12.4783C32.2896 11.354 31.7822 10.2757 30.8791 9.48075C29.9759 8.68576 28.751 8.23914 27.4738 8.23914H13.0264C11.7492 8.23914 10.5243 8.68576 9.62114 9.48075C8.71801 10.2757 8.21063 11.354 8.21063 12.4783V17.4239C8.21063 17.9861 8.46432 18.5252 8.91589 18.9227C9.36746 19.3202 9.97991 19.5435 10.6185 19.5435ZM13.8291 19.5435C13.6703 19.5435 13.5151 19.502 13.3831 19.4244C13.2511 19.3468 13.1483 19.2364 13.0875 19.1073C13.0268 18.9782 13.0109 18.8362 13.0418 18.6991C13.0728 18.5621 13.1493 18.4362 13.2615 18.3374C13.3738 18.2386 13.5168 18.1713 13.6725 18.144C13.8282 18.1168 13.9895 18.1307 14.1362 18.1842C14.2829 18.2377 14.4082 18.3283 14.4964 18.4444C14.5846 18.5606 14.6317 18.6972 14.6317 18.837C14.6317 19.0243 14.5471 19.204 14.3966 19.3365C14.2461 19.469 14.0419 19.5435 13.8291 19.5435ZM26.6712 19.5435C26.5124 19.5435 26.3572 19.502 26.2252 19.4244C26.0932 19.3468 25.9904 19.2364 25.9296 19.1073C25.8689 18.9782 25.853 18.8362 25.8839 18.6991C25.9149 18.5621 25.9914 18.4362 26.1036 18.3374C26.2159 18.2386 26.3589 18.1713 26.5146 18.144C26.6703 18.1168 26.8316 18.1307 26.9783 18.1842C27.125 18.2377 27.2503 18.3283 27.3385 18.4444C27.4267 18.5606 27.4738 18.6972 27.4738 18.837C27.4738 19.0243 27.3892 19.204 27.2387 19.3365C27.0882 19.469 26.884 19.5435 26.6712 19.5435ZM9.8159 12.4783C9.8159 11.7287 10.1541 11.0099 10.7562 10.4799C11.3583 9.94993 12.1749 9.65218 13.0264 9.65218H27.4738C28.3253 9.65218 29.1419 9.94993 29.744 10.4799C30.3461 11.0099 30.6843 11.7287 30.6843 12.4783V17.4239C30.6843 17.6113 30.5998 17.791 30.4492 17.9235C30.2987 18.056 30.0946 18.1304 29.8817 18.1304H28.9346C28.7659 17.7213 28.4581 17.3677 28.0532 17.1179C27.6482 16.868 27.1657 16.734 26.6712 16.734C26.1766 16.734 25.6941 16.868 25.2892 17.1179C24.8842 17.3677 24.5765 17.7213 24.4077 18.1304H16.0925C15.9238 17.7213 15.616 17.3677 15.2111 17.1179C14.8061 16.868 14.3236 16.734 13.8291 16.734C13.3345 16.734 12.852 16.868 12.4471 17.1179C12.0421 17.3677 11.7343 17.7213 11.5656 18.1304H10.6185C10.4057 18.1304 10.2015 18.056 10.051 17.9235C9.90046 17.791 9.8159 17.6113 9.8159 17.4239V12.4783Z" fill="white"/>
<path d="M12.2233 15.3043H15.4339C15.6467 15.3043 15.8509 15.2299 16.0014 15.0974C16.1519 14.9649 16.2365 14.7852 16.2365 14.5978V11.7717C16.2365 11.5844 16.1519 11.4047 16.0014 11.2722C15.8509 11.1397 15.6467 11.0652 15.4339 11.0652H12.2233C12.0105 11.0652 11.8063 11.1397 11.6558 11.2722C11.5053 11.4047 11.4207 11.5844 11.4207 11.7717V14.5978C11.4207 14.7852 11.5053 14.9649 11.6558 15.0974C11.8063 15.2299 12.0105 15.3043 12.2233 15.3043ZM13.026 12.4783H14.6312V13.8913H13.026V12.4783Z" fill="white"/>
<path d="M18.6446 15.3043H21.8551C22.0679 15.3043 22.2721 15.2299 22.4226 15.0974C22.5731 14.9649 22.6577 14.7852 22.6577 14.5978V11.7717C22.6577 11.5844 22.5731 11.4047 22.4226 11.2722C22.2721 11.1397 22.0679 11.0652 21.8551 11.0652H18.6446C18.4317 11.0652 18.2275 11.1397 18.077 11.2722C17.9265 11.4047 17.8419 11.5844 17.8419 11.7717V14.5978C17.8419 14.7852 17.9265 14.9649 18.077 15.0974C18.2275 15.2299 18.4317 15.3043 18.6446 15.3043ZM19.4472 12.4783H21.0524V13.8913H19.4472V12.4783Z" fill="white"/>
<path d="M25.0658 15.3043H28.2763C28.4892 15.3043 28.6933 15.2299 28.8438 15.0974C28.9943 14.9649 29.0789 14.7852 29.0789 14.5978V11.7717C29.0789 11.5844 28.9943 11.4047 28.8438 11.2722C28.6933 11.1397 28.4892 11.0652 28.2763 11.0652H25.0658C24.8529 11.0652 24.6487 11.1397 24.4982 11.2722C24.3477 11.4047 24.2631 11.5844 24.2631 11.7717V14.5978C24.2631 14.7852 24.3477 14.9649 24.4982 15.0974C24.6487 15.2299 24.8529 15.3043 25.0658 15.3043ZM25.8684 12.4783H27.4736V13.8913H25.8684V12.4783Z" fill="white"/>
<path d="M13.8292 26.6087H11.4213C11.2084 26.6087 11.0043 26.6831 10.8537 26.8156C10.7032 26.9481 10.6187 27.1278 10.6187 27.3152V32.9674C10.6187 33.1548 10.7032 33.3345 10.8537 33.467C11.0043 33.5995 11.2084 33.6739 11.4213 33.6739H13.8292C14.4678 33.6739 15.0802 33.4506 15.5318 33.0531C15.9834 32.6556 16.2371 32.1165 16.2371 31.5544C16.2335 31.0315 16.0106 30.5282 15.611 30.1413C16.0106 29.7544 16.2335 29.2511 16.2371 28.7283C16.2371 28.1661 15.9834 27.627 15.5318 27.2295C15.0802 26.832 14.4678 26.6087 13.8292 26.6087ZM12.2239 28.0217H13.8292C14.042 28.0217 14.2462 28.0962 14.3967 28.2287C14.5472 28.3612 14.6318 28.5409 14.6318 28.7283C14.6318 28.9156 14.5472 29.0954 14.3967 29.2279C14.2462 29.3604 14.042 29.4348 13.8292 29.4348H12.2239V28.0217ZM13.8292 32.2609H12.2239V30.8478H13.8292C14.042 30.8478 14.2462 30.9223 14.3967 31.0548C14.5472 31.1873 14.6318 31.367 14.6318 31.5544C14.6318 31.7417 14.5472 31.9214 14.3967 32.0539C14.2462 32.1864 14.042 32.2609 13.8292 32.2609Z" fill="white"/>
<path d="M21.8551 31.2011C21.8551 31.4822 21.7282 31.7517 21.5024 31.9505C21.2767 32.1492 20.9704 32.2609 20.6511 32.2609C20.3318 32.2609 20.0256 32.1492 19.7998 31.9505C19.574 31.7517 19.4472 31.4822 19.4472 31.2011V26.6087H17.8419V31.2011C17.8419 31.8569 18.1379 32.4859 18.6647 32.9496C19.1915 33.4134 19.9061 33.6739 20.6511 33.6739C21.3962 33.6739 22.1107 33.4134 22.6375 32.9496C23.1644 32.4859 23.4603 31.8569 23.4603 31.2011V26.6087H21.8551V31.2011Z" fill="white"/>
<path d="M27.4738 28.0217C27.6867 28.0217 27.8908 28.0962 28.0414 28.2287C28.1919 28.3612 28.2764 28.5409 28.2764 28.7283H29.8817C29.8817 28.1661 29.628 27.627 29.1765 27.2295C28.7249 26.832 28.1124 26.6087 27.4738 26.6087C26.8352 26.6087 26.2227 26.832 25.7712 27.2295C25.3196 27.627 25.0659 28.1661 25.0659 28.7283C25.0628 29.0724 25.1704 29.4104 25.3764 29.7029C25.5824 29.9955 25.8782 30.2308 26.2297 30.3815L28.0036 31.1658C28.0864 31.2008 28.1562 31.2561 28.2046 31.3249C28.2529 31.3938 28.2779 31.4734 28.2764 31.5544C28.2764 31.7417 28.1919 31.9214 28.0414 32.0539C27.8908 32.1864 27.6867 32.2609 27.4738 32.2609C27.2609 32.2609 27.0568 32.1864 26.9063 32.0539C26.7557 31.9214 26.6712 31.7417 26.6712 31.5544H25.0659C25.0659 32.1165 25.3196 32.6556 25.7712 33.0531C26.2227 33.4506 26.8352 33.6739 27.4738 33.6739C28.1124 33.6739 28.7249 33.4506 29.1765 33.0531C29.628 32.6556 29.8817 32.1165 29.8817 31.5544C29.8848 31.2102 29.7772 30.8722 29.5712 30.5797C29.3653 30.2871 29.0694 30.0518 28.7179 29.9011L26.9441 29.1169C26.8612 29.0818 26.7914 29.0266 26.7431 28.9577C26.6947 28.8888 26.6698 28.8092 26.6712 28.7283C26.6712 28.5409 26.7557 28.3612 26.9063 28.2287C27.0568 28.0962 27.2609 28.0217 27.4738 28.0217Z" fill="white"/>
</svg>
