<svg width="40" height="40" viewBox="0 0 40 40" fill="none" xmlns="http://www.w3.org/2000/svg">
<rect width="40" height="40" fill="#FD8900"/>
<path d="M23.2969 8.0625L20.25 7.55469V5.52344L23.2969 6.03125V8.0625Z" fill="white"/>
<path d="M25.8359 34.9766H14.6641V13.6484L20.25 9.58594L25.8359 13.6484V34.9766Z" fill="white"/>
<path d="M20.25 19.2344C21.6523 19.2344 22.7891 18.0976 22.7891 16.6953C22.7891 15.293 21.6523 14.1562 20.25 14.1562C18.8477 14.1562 17.7109 15.293 17.7109 16.6953C17.7109 18.0976 18.8477 19.2344 20.25 19.2344Z" fill="#FD8900"/>
<path d="M25.8359 13.6484H33.9609V34.9766H25.8359V13.6484Z" fill="white"/>
<path d="M20.7578 17.2031H20.25C20.1153 17.2031 19.9862 17.1496 19.8909 17.0544C19.7957 16.9592 19.7422 16.83 19.7422 16.6953V15.6797C19.7422 15.545 19.7957 15.4158 19.8909 15.3206C19.9862 15.2254 20.1153 15.1719 20.25 15.1719C20.3847 15.1719 20.5138 15.2254 20.6091 15.3206C20.7043 15.4158 20.7578 15.545 20.7578 15.6797V16.1875C20.8925 16.1875 21.0217 16.241 21.1169 16.3362C21.2121 16.4315 21.2656 16.5606 21.2656 16.6953C21.2656 16.83 21.2121 16.9592 21.1169 17.0544C21.0217 17.1496 20.8925 17.2031 20.7578 17.2031Z" fill="#EB423F"/>
<path d="M16.6953 21.2656H23.8047V23.2969H16.6953V21.2656Z" fill="#FD8900"/>
<path d="M20.25 25.8359C21.0581 25.8359 21.8331 26.1569 22.4045 26.7283C22.9759 27.2997 23.2969 28.0747 23.2969 28.8828V34.9766H17.2031V28.8828C17.2031 28.0747 17.5241 27.2997 18.0955 26.7283C18.6669 26.1569 19.4419 25.8359 20.25 25.8359Z" fill="#FD8900"/>
<path d="M6.53906 13.6484H14.6641V34.9766H6.53906V13.6484Z" fill="white"/>
<path d="M9.07812 16.1875H12.125V20.25H9.07812V16.1875Z" fill="#FD8900"/>
<path d="M9.07812 22.2812H12.125V26.3438H9.07812V22.2812Z" fill="#FD8900"/>
<path d="M9.07812 28.375H12.125V32.4375H9.07812V28.375Z" fill="#FD8900"/>
<path d="M28.375 16.1875H31.4219V20.25H28.375V16.1875Z" fill="#FD8900"/>
<path d="M28.375 22.2812H31.4219V26.3438H28.375V22.2812Z" fill="#FD8900"/>
<path d="M28.375 28.375H31.4219V32.4375H28.375V28.375Z" fill="#FD8900"/>
<path d="M20.25 17.2031H20.7578C20.8925 17.2031 21.0217 17.1496 21.1169 17.0544C21.2121 16.9592 21.2656 16.83 21.2656 16.6953C21.2656 16.5606 21.2121 16.4315 21.1169 16.3362C21.0217 16.241 20.8925 16.1875 20.7578 16.1875V15.6797C20.7578 15.545 20.7043 15.4158 20.6091 15.3206C20.5138 15.2254 20.3847 15.1719 20.25 15.1719C20.1153 15.1719 19.9862 15.2254 19.8909 15.3206C19.7957 15.4158 19.7422 15.545 19.7422 15.6797V16.6953C19.7422 16.83 19.7957 16.9592 19.8909 17.0544C19.9862 17.1496 20.1153 17.2031 20.25 17.2031Z" fill="white"/>
<rect x="20.0596" y="5.52344" width="0.507812" height="4.31641" fill="white"/>
</svg>
