<svg width="40" height="40" viewBox="0 0 40 40" fill="none" xmlns="http://www.w3.org/2000/svg">
<rect width="40" height="40" fill="#4E4E4E"/>
<path d="M35.6447 4H4.85526C4.62843 4 4.41089 4.07444 4.2505 4.20694C4.09011 4.33943 4 4.51914 4 4.70652V35.7935C4 35.9809 4.09011 36.1606 4.2505 36.2931C4.41089 36.4256 4.62843 36.5 4.85526 36.5H35.6447C35.8716 36.5 36.0891 36.4256 36.2495 36.2931C36.4099 36.1606 36.5 35.9809 36.5 35.7935V4.70652C36.5 4.51914 36.4099 4.33943 36.2495 4.20694C36.0891 4.07444 35.8716 4 35.6447 4ZM34.7895 35.087H5.71053V5.41304H34.7895V35.087Z" fill="white"/>
<path d="M15.1184 18.1304H25.3816C25.6084 18.1304 25.826 18.056 25.9864 17.9235C26.1468 17.791 26.2369 17.6113 26.2369 17.4239V11.7717C26.2369 11.5844 26.1468 11.4047 25.9864 11.2722C25.826 11.1397 25.6084 11.0652 25.3816 11.0652H15.1184C14.8916 11.0652 14.6741 11.1397 14.5137 11.2722C14.3533 11.4047 14.2632 11.5844 14.2632 11.7717V17.4239C14.2632 17.6113 14.3533 17.791 14.5137 17.9235C14.6741 18.056 14.8916 18.1304 15.1184 18.1304ZM15.9737 12.4783H24.5263V16.7174H15.9737V12.4783Z" fill="white"/>
<path d="M16.829 23.0761C17.3364 23.0761 17.8325 22.9518 18.2544 22.7189C18.6764 22.486 19.0053 22.1549 19.1995 21.7676C19.3937 21.3803 19.4445 20.9542 19.3455 20.543C19.2465 20.1318 19.0021 19.7542 18.6433 19.4578C18.2844 19.1613 17.8272 18.9595 17.3295 18.8777C16.8318 18.7959 16.3159 18.8379 15.8471 18.9983C15.3783 19.1587 14.9775 19.4304 14.6956 19.7789C14.4137 20.1275 14.2632 20.5373 14.2632 20.9565C14.2632 21.5187 14.5335 22.0578 15.0147 22.4553C15.4959 22.8528 16.1485 23.0761 16.829 23.0761ZM16.829 20.25C16.9981 20.25 17.1635 20.2914 17.3041 20.3691C17.4448 20.4467 17.5544 20.557 17.6191 20.6861C17.6839 20.8152 17.7008 20.9573 17.6678 21.0943C17.6348 21.2314 17.5533 21.3573 17.4337 21.4561C17.3141 21.5549 17.1617 21.6222 16.9958 21.6495C16.8299 21.6767 16.658 21.6627 16.5017 21.6093C16.3454 21.5558 16.2118 21.4652 16.1178 21.349C16.0239 21.2328 15.9737 21.0962 15.9737 20.9565C15.9737 20.7691 16.0638 20.5894 16.2242 20.4569C16.3846 20.3244 16.6021 20.25 16.829 20.25Z" fill="white"/>
<path d="M23.671 18.8369C23.1635 18.8369 22.6675 18.9613 22.2455 19.1942C21.8236 19.4271 21.4947 19.7581 21.3005 20.1454C21.1063 20.5327 21.0555 20.9589 21.1545 21.37C21.2535 21.7812 21.4979 22.1588 21.8567 22.4553C22.2156 22.7517 22.6727 22.9536 23.1705 23.0353C23.6682 23.1171 24.1841 23.0752 24.6529 22.9147C25.1217 22.7543 25.5225 22.4826 25.8044 22.1341C26.0863 21.7855 26.2368 21.3757 26.2368 20.9565C26.2368 20.3944 25.9665 19.8552 25.4853 19.4578C25.0041 19.0603 24.3515 18.8369 23.671 18.8369ZM23.671 21.663C23.5019 21.663 23.3365 21.6216 23.1959 21.544C23.0552 21.4663 22.9456 21.356 22.8809 21.2269C22.8161 21.0978 22.7992 20.9557 22.8322 20.8187C22.8652 20.6816 22.9466 20.5557 23.0663 20.4569C23.1859 20.3581 23.3383 20.2908 23.5042 20.2636C23.6701 20.2363 23.842 20.2503 23.9983 20.3038C24.1546 20.3572 24.2882 20.4478 24.3821 20.564C24.4761 20.6802 24.5263 20.8168 24.5263 20.9565C24.5263 21.1439 24.4362 21.3236 24.2758 21.4561C24.1154 21.5886 23.8978 21.663 23.671 21.663Z" fill="white"/>
<path d="M9.05463 31.844L9.60199 30.8478H30.898L31.4454 31.844L33.002 31.2647L29.0079 24.0087C29.4324 23.5343 29.6604 22.9595 29.6579 22.3696V11.0652C29.6579 10.3157 29.2975 9.59687 28.6559 9.06688C28.0143 8.53688 27.1442 8.23914 26.2369 8.23914H14.2632C13.3559 8.23914 12.4857 8.53688 11.8441 9.06688C11.2026 9.59687 10.8421 10.3157 10.8421 11.0652V22.3696C10.8396 22.9595 11.0676 23.5343 11.4921 24.0087L7.49805 31.2647L9.05463 31.844ZM10.3803 29.4348L11.1586 28.0217H29.3415L30.1198 29.4348H10.3803ZM14.2632 25.1957H26.2369C26.7238 25.1948 27.2049 25.1081 27.648 24.9413L28.5632 26.6087H11.9369L12.852 24.9413C13.2951 25.1081 13.7762 25.1948 14.2632 25.1957ZM12.5527 11.0652C12.5527 10.6905 12.7329 10.331 13.0537 10.0661C13.3744 9.80105 13.8095 9.65218 14.2632 9.65218H26.2369C26.6905 9.65218 27.1256 9.80105 27.4464 10.0661C27.7672 10.331 27.9474 10.6905 27.9474 11.0652V22.3696C27.9474 22.7443 27.7672 23.1037 27.4464 23.3687C27.1256 23.6337 26.6905 23.7826 26.2369 23.7826H14.2632C13.8095 23.7826 13.3744 23.6337 13.0537 23.3687C12.7329 23.1037 12.5527 22.7443 12.5527 22.3696V11.0652Z" fill="white"/>
</svg>
