<svg width="40" height="40" viewBox="0 0 40 40" fill="none" xmlns="http://www.w3.org/2000/svg">
<rect width="40" height="40" fill="#2ADF0C"/>
<path d="M32.0098 11.2363C32.3603 11.2363 32.6445 10.9521 32.6445 10.6016V4.63477C32.6445 4.28418 32.3603 4 32.0098 4H7.63477C7.28418 4 7 4.28418 7 4.63477V35.8652C7 36.2158 7.28418 36.5 7.63477 36.5H32.0098C32.3603 36.5 32.6445 36.2158 32.6445 35.8652V16.0182C32.6445 15.6676 32.3603 15.3834 32.0098 15.3834C31.6592 15.3834 31.375 15.6676 31.375 16.0182V19.6232H24.648C24.343 17.2355 22.2996 15.3834 19.8303 15.3834C17.3611 15.3834 15.3177 17.2356 15.0126 19.6232H8.26953V5.26953H11.2529V10.1572C11.2529 10.5078 11.5371 10.792 11.8877 10.792H16.0875C16.8248 12.1608 18.2506 13.0243 19.8303 13.0243C21.4101 13.0243 22.8359 12.1608 23.5732 10.792H27.7568C28.1074 10.792 28.3916 10.5078 28.3916 10.1572V5.26953H31.375V10.6016C31.375 10.9521 31.6592 11.2363 32.0098 11.2363ZM23.1548 35.2143H16.4897V33.7226H23.1548V35.2143ZM27.1221 35.2143H24.4243V33.0879C24.4243 32.7373 24.1401 32.4531 23.7896 32.4531H15.855C15.5044 32.4531 15.2202 32.7373 15.2202 33.0879V35.2143H12.5225V30.9614H23.1726C23.173 30.9614 23.1734 30.9615 23.1738 30.9615C23.1745 30.9615 23.1751 30.9614 23.1757 30.9614H27.1221V35.2143ZM17.6336 29.6919C18.1878 29.0884 18.977 28.7291 19.8303 28.7291C20.6837 28.7291 21.4728 29.0884 22.0271 29.6919H17.6336ZM19.8303 16.653C21.5982 16.653 23.0706 17.9382 23.3648 19.6232H16.2958C16.59 17.9383 18.0624 16.653 19.8303 16.653ZM23.359 20.8928C23.0518 22.5619 21.5869 23.8309 19.8303 23.8309C18.0736 23.8309 16.6088 22.5619 16.3015 20.8928H23.359ZM15.0167 20.8928C15.3359 23.2649 17.3721 25.1004 19.8303 25.1004C22.2885 25.1004 24.3247 23.265 24.6439 20.8928H31.375V35.2305H28.3916V30.3267C28.3916 29.9761 28.1074 29.6919 27.7568 29.6919H23.5732C22.8359 28.3231 21.4101 27.4595 19.8303 27.4595C18.2506 27.4595 16.8248 28.3231 16.0875 29.6919H11.8877C11.5371 29.6919 11.2529 29.9761 11.2529 30.3267V35.2305H8.26953V20.8928H15.0167ZM19.8303 11.7548C18.977 11.7548 18.1878 11.3955 17.6336 10.792H22.0271C21.4728 11.3955 20.6837 11.7548 19.8303 11.7548ZM27.1221 9.52246H23.1718C23.1705 9.52246 23.1692 9.52246 23.1679 9.52246H12.5225V5.26953H15.2202V7.41212C15.2202 7.7627 15.5044 8.04689 15.855 8.04689H17.7699C18.1205 8.04689 18.4046 7.7627 18.4046 7.41212C18.4046 7.06154 18.1205 6.77735 17.7699 6.77735H16.4897V5.28565H23.1548V6.77735H21.8747C21.5241 6.77735 21.2399 7.06154 21.2399 7.41212C21.2399 7.7627 21.5241 8.04689 21.8747 8.04689H23.7896C24.1401 8.04689 24.4243 7.7627 24.4243 7.41212V5.26953H27.1221V9.52246Z" fill="white"/>
</svg>
