<svg width="40" height="40" viewBox="0 0 40 40" fill="none" xmlns="http://www.w3.org/2000/svg">
<rect width="40" height="40" fill="#FDB600"/>
<g clip-path="url(#clip0)">
<path d="M17.5336 12.9531C17.5098 11.9663 17.1267 11.0309 16.4696 10.3161L9.85411 4.74011C9.59376 4.52074 9.20918 4.53713 8.96866 4.77812C8.71277 5.03451 8.71277 5.4504 8.96866 5.70679L14.0156 10.7636C14.325 11.0736 14.325 11.5765 14.0156 11.8865L11.776 14.1304C11.4666 14.4405 10.9647 14.4405 10.6553 14.1304L5.60836 9.07366C5.35247 8.81727 4.9374 8.81727 4.68151 9.07366C4.44099 9.31465 4.42438 9.69998 4.64332 9.96084L10.2087 16.5892C10.9221 17.2476 11.8556 17.6314 12.8405 17.6553L14.7537 17.6613C15.6377 17.6642 16.4802 18.0369 17.0781 18.6896L32.2946 35.4285C33.038 36.2344 34.4268 36.1336 35.2012 35.3574C35.9758 34.5816 36.0764 33.1903 35.2721 32.4452L18.5658 17.1989C17.9144 16.5999 17.5425 15.7557 17.5395 14.87L17.5336 12.9531Z" fill="white"/>
<path d="M35.8197 33.5885C35.8162 33.5555 35.812 33.5224 35.807 33.4894C35.7971 33.4235 35.7842 33.3584 35.7679 33.2943C35.7597 33.2623 35.7507 33.2305 35.7408 33.1989C35.6528 32.9152 35.4981 32.6546 35.2719 32.4452L18.5657 17.1989C18.4657 17.107 18.373 17.0086 18.2867 16.9057C18.2324 16.8411 18.1798 16.7753 18.131 16.7067C18.0995 16.6625 18.069 16.6175 18.0397 16.5716C17.9227 16.3885 17.8248 16.1942 17.7477 15.9915C17.6125 15.6369 17.5406 15.2573 17.5394 14.87L17.5334 12.9528C17.526 12.6445 17.4836 12.3414 17.4085 12.048C17.3785 11.9307 17.3432 11.8152 17.3031 11.7014C17.1221 11.1899 16.8391 10.7181 16.4694 10.3161L9.85398 4.7401C9.82125 4.71252 9.78678 4.68892 9.75108 4.6688C9.66132 4.61861 9.56263 4.59129 9.46345 4.58656C9.42378 4.58483 9.38386 4.58632 9.34443 4.59178C9.20657 4.61042 9.07391 4.67277 8.96853 4.77836C8.71264 5.03475 8.71264 5.45039 8.96853 5.70703L14.0154 10.7638C14.1121 10.8607 14.1788 10.9765 14.215 11.0992C14.2294 11.1481 14.2391 11.1983 14.244 11.249C14.2488 11.2997 14.2488 11.3506 14.244 11.4013C14.2368 11.4773 14.2185 11.5523 14.1895 11.6239C14.1508 11.7195 14.0928 11.809 14.0154 11.8865L13.3214 12.5821L13.8029 12.9881C14.46 13.7028 14.8431 14.6382 14.8669 15.625C14.8669 15.625 14.8669 15.6454 14.8672 15.6827C14.8711 16.6811 15.4298 17.5807 16.2984 18.0704C16.2991 18.0709 16.3001 18.0714 16.3008 18.0719C16.3182 18.0816 16.3351 18.092 16.3522 18.1022C16.3775 18.1171 16.4025 18.1323 16.4273 18.1477C16.4446 18.1586 16.462 18.1698 16.4791 18.1812C16.5049 18.1981 16.5304 18.2153 16.5557 18.2329C16.5704 18.2433 16.585 18.2533 16.5996 18.2637C16.6378 18.2915 16.6757 18.3201 16.7129 18.3497C16.7209 18.3559 16.7283 18.3623 16.7362 18.3688C16.7667 18.3936 16.7972 18.419 16.827 18.4453C16.8394 18.456 16.8515 18.4672 16.8639 18.4781C16.89 18.5017 16.9158 18.5258 16.9413 18.5504C16.9522 18.5611 16.9634 18.5715 16.9743 18.5825C17.0095 18.6172 17.0442 18.653 17.0779 18.6898L29.1202 31.9366L32.6052 35.1172C32.8415 35.336 32.9992 35.6108 33.0852 35.9094C33.2194 35.9482 33.3585 35.9723 33.4993 35.9822H33.4996C33.5923 35.9889 33.6858 35.9892 33.7792 35.9837C33.782 35.9835 33.7847 35.9832 33.7872 35.9832C33.8794 35.9773 33.9717 35.9658 34.0632 35.9484C34.0664 35.9479 34.0696 35.9472 34.0728 35.9464C34.1145 35.9385 34.1561 35.9291 34.1975 35.9186C34.2023 35.9174 34.207 35.9164 34.2114 35.9151C34.2561 35.9037 34.3002 35.8908 34.3441 35.8766C34.3448 35.8764 34.3456 35.8761 34.3463 35.8759C34.387 35.8625 34.4272 35.8478 34.4673 35.8322C34.4755 35.8292 34.4837 35.826 34.4919 35.8225C34.5318 35.8063 34.5712 35.7894 34.6101 35.771C34.6111 35.7706 34.6119 35.7703 34.6126 35.7701C34.6523 35.7512 34.6912 35.7308 34.7299 35.7097C34.7386 35.7047 34.7475 35.6997 34.7562 35.6948C34.7872 35.6771 34.8177 35.6588 34.8479 35.6396C34.8556 35.6347 34.8636 35.6299 34.8712 35.625C34.9072 35.6014 34.9424 35.5768 34.9769 35.5512C34.9838 35.546 34.9903 35.5407 34.997 35.5358C35.025 35.5142 35.0525 35.4921 35.0795 35.4689C35.0885 35.4615 35.0976 35.4538 35.1063 35.4458C35.1388 35.4173 35.1705 35.3882 35.201 35.3576C35.6126 34.9452 35.8338 34.3594 35.8303 33.789C35.8298 33.7219 35.8264 33.6548 35.8197 33.5885Z" fill="white"/>
<path d="M30.0374 16.4322C31.2459 16.3301 32.3441 15.6879 33.0272 14.6837L34.5368 12.4644C35.7731 10.6465 36.2588 8.41976 35.8919 6.25087C35.8318 5.8961 35.6526 5.58604 35.3987 5.36046C35.1448 5.13488 34.816 4.99351 34.4572 4.97637C32.2643 4.87153 30.1157 5.62157 28.4628 7.06948L26.445 8.83714C25.5318 9.63687 25.0272 10.8065 25.0708 12.0209L25.1797 13.9349C25.2297 14.8191 24.9091 15.6842 24.2947 16.3212L8.53264 32.5453C7.77439 33.3374 7.95813 34.7199 8.77787 35.4481C9.59737 36.1761 10.9896 36.1932 11.6834 35.344L25.8692 17.7196C26.4269 17.0325 27.2456 16.6096 28.1279 16.5535L30.0374 16.4322Z" fill="white"/>
<path d="M35.8919 6.25087C35.8318 5.8961 35.6526 5.58605 35.3987 5.36046C35.3035 5.27574 35.1976 5.20295 35.0838 5.14432C34.97 5.08544 34.8477 5.04072 34.7198 5.0119C34.6347 4.99277 34.5469 4.9806 34.4572 4.97637C34.3783 4.97265 34.2995 4.97041 34.2209 4.96867C34.1971 4.96817 34.1733 4.96817 34.1495 4.96793C34.0932 4.96718 34.0371 4.96718 33.9811 4.96768C33.9553 4.96768 33.9295 4.96817 33.9037 4.96842C33.8455 4.96966 33.7872 4.9714 33.7289 4.97339C33.7084 4.97439 33.6875 4.97488 33.6669 4.97588C33.5874 4.97935 33.508 4.98383 33.4287 4.98979C33.4482 6.72117 32.9402 8.42945 31.9551 9.87786L30.4455 12.0969C29.9087 12.886 29.1157 13.4517 28.2144 13.7073C27.5243 13.9031 26.8496 14.1498 26.2107 14.4758C25.6173 14.7784 25.0339 15.0807 25.0267 15.1028C25.0247 15.1093 25.0222 15.1157 25.0202 15.1219C25.0056 15.1652 24.9907 15.2082 24.9744 15.2506C24.9711 15.2593 24.9674 15.2678 24.9639 15.2765C24.9483 15.3165 24.9322 15.3565 24.9148 15.396C24.9099 15.4069 24.9047 15.4178 24.8997 15.4288C24.8829 15.4655 24.866 15.5023 24.8479 15.5386C24.8412 15.552 24.8338 15.5649 24.8271 15.5783C24.8097 15.6119 24.7921 15.6452 24.7735 15.6782C24.7646 15.6941 24.7549 15.7095 24.7457 15.7252C24.7281 15.7552 24.7108 15.785 24.6922 15.8146C24.6805 15.833 24.6681 15.8509 24.656 15.8693C24.6386 15.8953 24.6218 15.9217 24.6034 15.9473C24.5885 15.9686 24.5724 15.9895 24.5568 16.0104C24.5404 16.0325 24.5246 16.0548 24.5077 16.0762C24.4874 16.102 24.466 16.1271 24.445 16.1525C24.4316 16.1686 24.4187 16.185 24.4048 16.2009C24.3693 16.2419 24.3326 16.2819 24.2947 16.3212L8.53264 32.5453C7.77439 33.3374 7.95813 34.7199 8.77787 35.4481C9.59737 36.1761 10.9896 36.1932 11.6834 35.344L25.8692 17.7196C26.4269 17.0325 27.2456 16.6096 28.1279 16.5535L30.0374 16.4322C31.2459 16.3301 32.3441 15.6879 33.027 14.6837L34.5365 12.4644C35.7731 10.6465 36.2588 8.41976 35.8919 6.25087Z" fill="white"/>
<path d="M28.1587 17.0406L30.0682 16.9194C30.0714 16.9192 30.0749 16.9189 30.0783 16.9187C31.4391 16.8036 32.6605 16.0894 33.4297 14.9585L34.9393 12.7394C36.2532 10.8075 36.7622 8.47416 36.3722 6.16938C36.2956 5.71672 36.0645 5.29959 35.7218 4.99525C35.3789 4.69066 34.938 4.51079 34.4803 4.48893C32.149 4.37713 29.8988 5.16344 28.1423 6.70204L26.1244 8.46969C25.0962 9.37029 24.5348 10.6709 24.5839 12.0385C24.5841 12.0418 24.5841 12.0452 24.5844 12.0487L24.6932 13.9625C24.7356 14.7085 24.4626 15.4447 23.9456 15.9808L8.1811 32.2074C7.75908 32.6484 7.54113 33.2534 7.56766 33.911C7.59692 34.635 7.92843 35.346 8.45459 35.8133C8.92993 36.2354 9.58329 36.4759 10.2364 36.4759C10.3063 36.4759 10.3763 36.4732 10.4459 36.4675C11.1008 36.415 11.6743 36.1259 12.0626 35.6503L26.2474 18.0274C26.7178 17.4476 27.4145 17.0878 28.1587 17.0406ZM25.4902 17.4133L11.3066 35.0347C11.0899 35.3 10.7566 35.4635 10.3683 35.4946C9.90638 35.5316 9.43278 35.3775 9.10102 35.0829C8.76925 34.788 8.55998 34.3353 8.54138 33.8715C8.52551 33.4817 8.64726 33.1307 8.88182 32.8857L24.6451 16.6603C25.3518 15.9276 25.7237 14.9242 25.6662 13.9071L25.5574 11.9983C25.5204 10.9278 25.9605 9.9099 26.7656 9.20458L28.7835 7.43692C30.3496 6.06528 32.3566 5.36493 34.4339 5.46381C34.6705 5.47524 34.8981 5.56815 35.0754 5.72566C35.2527 5.88293 35.3719 6.09857 35.4116 6.33236C35.7593 8.38721 35.3055 10.4672 34.1342 12.1893L32.6246 14.4087C32.0223 15.2941 31.0664 15.8538 30.0012 15.9455L28.0969 16.0663C27.0823 16.1309 26.1326 16.6213 25.4902 17.4133Z" fill="white"/>
<path d="M9.87911 16.9482C10.6855 17.6925 11.7331 18.1169 12.829 18.1432C12.8325 18.1435 12.836 18.1435 12.8392 18.1435L14.7524 18.1494C15.4983 18.1517 16.2151 18.4689 16.7182 19.0182L17.561 19.9452C17.6572 20.051 17.7889 20.1047 17.9213 20.1047C18.0384 20.1047 18.1559 20.0627 18.2491 19.9775C18.4482 19.7958 18.4626 19.487 18.2813 19.2878L17.4373 18.3596C16.75 17.6088 15.7725 17.1765 14.7557 17.1731L12.8476 17.1671C11.9999 17.1455 11.1893 16.8203 10.5612 16.2506L5.0167 9.64655C4.96016 9.57898 4.96438 9.48109 5.02661 9.41873C5.06926 9.37575 5.11935 9.36954 5.14539 9.36954C5.17142 9.36954 5.22151 9.37575 5.2644 9.41873L10.3113 14.4757C10.8102 14.9756 11.622 14.9756 12.1209 14.4755L12.714 13.8815V13.8812L13.7671 12.8261C13.7671 12.8261 13.7673 12.8261 13.7673 12.8258L13.7676 12.8256L14.3604 12.2316C14.8593 11.7317 14.8593 10.9183 14.3604 10.4185L9.31352 5.3617C9.24806 5.29611 9.24806 5.18903 9.31352 5.12344C9.37576 5.06109 9.47346 5.05686 9.5409 5.11351L16.1321 10.6691C16.7009 11.2982 17.0254 12.1106 17.047 12.9598L17.0527 14.8718C17.0562 15.8904 17.4879 16.8697 18.2382 17.5599L19.1413 18.384C19.3404 18.5656 19.6483 18.5512 19.8296 18.3519C20.0106 18.1524 19.9962 17.8438 19.7973 17.6622L18.8958 16.8394C18.3461 16.3341 18.0297 15.6156 18.0272 14.8685L18.0212 12.9516C18.0212 12.9481 18.0212 12.9446 18.021 12.9411C17.9947 11.843 17.5712 10.7934 16.8283 9.98542C16.8144 9.97027 16.7996 9.95586 16.7837 9.94244L10.168 4.36645C9.71075 3.98087 9.04722 4.00969 8.6247 4.43303C8.17913 4.87948 8.17913 5.60567 8.6247 6.05187L13.6716 11.1089C13.7906 11.2281 13.7906 11.4222 13.6716 11.5414L13.4229 11.7903L7.79802 6.15472C7.60784 5.96392 7.29938 5.96392 7.1092 6.15472C6.91901 6.34527 6.91901 6.65433 7.1092 6.84489L12.7341 12.4808L12.3696 12.8457L6.7447 7.2101C6.55452 7.01954 6.24606 7.01954 6.05588 7.2101C5.86545 7.40065 5.86545 7.70971 6.05588 7.90026L11.6805 13.5361L11.4321 13.7853C11.313 13.9046 11.1194 13.9046 11.0004 13.7853L5.95323 8.72856C5.7375 8.51242 5.45062 8.39317 5.14539 8.39317C4.84015 8.39317 4.55327 8.51242 4.33754 8.72856C3.91503 9.15191 3.88651 9.81673 4.27109 10.2751L9.83646 16.9035C9.84961 16.9194 9.86399 16.9343 9.87911 16.9482Z" fill="white"/>
</g>
<defs>
<clipPath id="clip0">
<rect width="32.5" height="32.5" fill="white" transform="translate(4 4)"/>
</clipPath>
</defs>
</svg>
