<svg width="40" height="40" viewBox="0 0 40 40" fill="none" xmlns="http://www.w3.org/2000/svg">
<rect width="40" height="40" fill="#2300FD"/>
<path d="M20.2499 4C17.036 4 13.8942 4.95305 11.2219 6.73862C8.54963 8.52419 6.46683 11.0621 5.2369 14.0314C4.00698 17.0007 3.68518 20.268 4.31219 23.4202C4.9392 26.5724 6.48686 29.4679 8.75946 31.7405C11.0321 34.0131 13.9275 35.5607 17.0797 36.1878C20.2319 36.8148 23.4992 36.493 26.4685 35.263C29.4378 34.0331 31.9757 31.9503 33.7613 29.278C35.5469 26.6057 36.4999 23.4639 36.4999 20.25C36.4951 15.9417 34.7815 11.8113 31.7351 8.76486C28.6887 5.71844 24.5582 4.00484 20.2499 4V4ZM20.2499 33.7917C17.5717 33.7917 14.9535 32.9975 12.7266 31.5095C10.4997 30.0215 8.76401 27.9066 7.73908 25.4322C6.71414 22.9578 6.44597 20.235 6.96848 17.6082C7.49099 14.9813 8.7807 12.5684 10.6745 10.6746C12.5684 8.78076 14.9813 7.49104 17.6081 6.96853C20.2349 6.44602 22.9577 6.71419 25.4321 7.73913C27.9065 8.76407 30.0214 10.4997 31.5094 12.7267C32.9974 14.9536 33.7916 17.5717 33.7916 20.25C33.7875 23.8402 32.3595 27.2822 29.8208 29.8209C27.2822 32.3596 23.8402 33.7876 20.2499 33.7917Z" fill="white"/>
<path d="M22.2812 13.4792H17.5417C17.1825 13.4792 16.8381 13.6218 16.5841 13.8758C16.3302 14.1297 16.1875 14.4742 16.1875 14.8333V28.375H18.8958V22.9583H22.2812C23.5383 22.9583 24.7438 22.459 25.6326 21.5701C26.5215 20.6813 27.0208 19.4758 27.0208 18.2187C27.0208 16.9617 26.5215 15.7562 25.6326 14.8674C24.7438 13.9785 23.5383 13.4792 22.2812 13.4792ZM22.2812 20.25H18.8958V16.1875H22.2812C22.82 16.1875 23.3366 16.4015 23.7176 16.7824C24.0985 17.1634 24.3125 17.68 24.3125 18.2187C24.3125 18.7575 24.0985 19.2741 23.7176 19.6551C23.3366 20.036 22.82 20.25 22.2812 20.25Z" fill="white"/>
</svg>
