<svg width="40" height="40" viewBox="0 0 40 40" fill="none" xmlns="http://www.w3.org/2000/svg">
<rect width="40" height="40" fill="#DA00FD"/>
<path d="M4 23.2886H11.9268V36.5H4V23.2886Z" fill="white"/>
<path d="M28.5731 23.2886H36.4999V36.5H28.5731V23.2886Z" fill="white"/>
<path d="M31.2155 31.2154H33.8577V33.8577H31.2155V31.2154Z" fill="#DA00FD"/>
<path d="M31.2155 25.9309H33.8577V28.5732H31.2155V25.9309Z" fill="#DA00FD"/>
<path d="M28.1768 4L25.5346 6.64228L28.1768 9.28455H20.25V4H28.1768Z" fill="white"/>
<path d="M20.25 12.3232C16.1221 12.3232 12.7308 15.4787 12.3575 19.5095H28.1425C27.7693 15.4787 24.3779 12.3232 20.25 12.3232Z" fill="white"/>
<path d="M21.5712 23.2886H25.9309V33.8577H21.5712V23.2886Z" fill="#DA00FD"/>
<path d="M14.5691 23.2886H18.9288V33.8577H14.5691V23.2886Z" fill="#DA00FD"/>
<path d="M31.2154 23.2886V20.25C30.178 20 21.3049 17.8619 20.25 17.6077C19.2027 17.8601 10.3203 20.0004 9.28455 20.25V23.2886H11.9268V33.8577H9.28455V36.5H31.2154V33.8577H28.5732V23.2886H31.2154ZM14.5691 33.8577V23.2886H18.9289V33.8577H14.5691ZM25.9309 33.8577H21.5711V23.2886H25.9309V33.8577Z" fill="white"/>
<path d="M6.64233 31.2155H9.28461V33.8578H6.64233V31.2155Z" fill="#DA00FD"/>
<path d="M6.64233 25.931H9.28461V28.5732H6.64233V25.931Z" fill="#DA00FD"/>
<rect x="20.25" y="4" width="0.660569" height="8.78557" fill="white"/>
</svg>
